<svg xmlns="http://www.w3.org/2000/svg" xmlns:xlink="http://www.w3.org/1999/xlink" width="1920" zoomAndPan="magnify" viewBox="0 0 1440 809.999993" height="1080" preserveAspectRatio="xMidYMid meet" version="1.0"><defs><clipPath id="2e72a9dcd0"><path d="M 0 0 L 521.25 0 L 521.25 324 L 0 324 Z M 0 0 " clip-rule="nonzero"/></clipPath><clipPath id="ab4566dc88"><path d="M 918.949219 486 L 1440 486 L 1440 810 L 918.949219 810 Z M 918.949219 486 " clip-rule="nonzero"/></clipPath></defs><g clip-path="url(#2e72a9dcd0)"><path fill="#08555b" d="M 521.25 0.214844 C 485.804688 15.011719 449.316406 35.539062 411.890625 62.949219 C 405.636719 67.535156 399.382812 72.222656 393.125 77.226562 C 377.699219 89.417969 362.164062 102.652344 346.421875 117.242188 C 344.335938 119.117188 342.355469 120.992188 340.273438 122.972656 C 334.957031 127.976562 329.636719 133.1875 324.320312 138.5 C 315.460938 147.359375 306.597656 155.800781 297.84375 163.929688 C 291.273438 169.972656 284.707031 175.808594 278.242188 181.539062 C 277.828125 181.957031 277.410156 182.269531 276.886719 182.6875 C 179.207031 266.992188 85.902344 309.195312 0 323.785156 L 0 0.214844 Z M 521.25 0.214844 " fill-opacity="1" fill-rule="nonzero"/></g><g clip-path="url(#ab4566dc88)"><path fill="#08555b" d="M 918.75 809.785156 C 954.191406 794.988281 990.679688 774.460938 1028.105469 747.050781 C 1034.359375 742.464844 1040.617188 737.777344 1046.871094 732.773438 C 1062.300781 720.582031 1077.832031 707.347656 1093.574219 692.757812 C 1095.660156 690.882812 1097.640625 689.007812 1099.726562 687.027344 C 1105.042969 682.023438 1110.359375 676.8125 1115.675781 671.5 C 1124.539062 662.640625 1133.398438 654.199219 1142.15625 646.070312 C 1148.722656 640.027344 1155.292969 634.191406 1161.753906 628.460938 C 1162.171875 628.042969 1162.589844 627.730469 1163.109375 627.3125 C 1260.792969 543.007812 1354.097656 500.804688 1440 486.214844 L 1440 809.785156 Z M 918.75 809.785156 " fill-opacity="1" fill-rule="nonzero"/></g></svg>
